<svg xmlns="http://www.w3.org/2000/svg" width="8.187" height="11.437" viewBox="0 0 8.187 11.437">
  <metadata><?xpacket begin="﻿" id="W5M0MpCehiHzreSzNTczkc9d"?>
<x:xmpmeta xmlns:x="adobe:ns:meta/" x:xmptk="Adobe XMP Core 5.6-c140 79.160451, 2017/05/06-01:08:21        ">
   <rdf:RDF xmlns:rdf="http://www.w3.org/1999/02/22-rdf-syntax-ns#">
      <rdf:Description rdf:about=""/>
   </rdf:RDF>
</x:xmpmeta>
                                                                                                    
                                                                                                    
                                                                                                    
                                                                                                    
                                                                                                    
                                                                                                    
                                                                                                    
                                                                                                    
                                                                                                    
                                                                                                    
                                                                                                    
                                                                                                    
                                                                                                    
                                                                                                    
                                                                                                    
                                                                                                    
                                                                                                    
                                                                                                    
                                                                                                    
                                                                                                    
                           
<?xpacket end="w"?></metadata>
<defs>
    <style>
      .cls-1 {
        fill: #ffb600;
        fill-rule: evenodd;
      }
    </style>
  </defs>
  <path id="Icon" class="cls-1" d="M609.46,866.72a4.091,4.091,0,0,0-4.09,4.091v0.01a3.2,3.2,0,0,0,.039.551,4.106,4.106,0,0,0,.24.926,22.658,22.658,0,0,0,3.811,5.853h0a22.625,22.625,0,0,0,3.81-5.852,3.954,3.954,0,0,0,.241-0.929,3.156,3.156,0,0,0,.039-0.548v-0.011A4.091,4.091,0,0,0,609.46,866.72Zm0,2.442h0a1.792,1.792,0,0,0,0,3.583h0A1.792,1.792,0,1,0,609.465,869.162Z" transform="translate(-605.375 -866.719)"/>
</svg>
